<svg xmlns="http://www.w3.org/2000/svg" enable-background="new 0 0 66 66" viewBox="0 0 66 66" id="artificial-intelligence"><rect width="5.8" height="6.7" x="46.5" y="37.5" fill="#D5B79F"></rect><rect width="2.9" height="6.7" x="46.5" y="37.5" fill="#C6A28A"></rect><ellipse cx="58.1" cy="30.2" fill="#C6A28A" rx="1.2" ry="2.4" transform="rotate(-171.455 58.112 30.225)"></ellipse><ellipse cx="40.5" cy="30.2" fill="#D5B79F" rx="1.2" ry="2.4" transform="rotate(171.455 40.492 30.204)"></ellipse><path fill="#D5B79F" d="M49.4,20.3c-4.7,0-8.5,3.3-8.5,9.3c0,5.9,3.8,10.7,8.5,10.7s8.5-4.8,8.5-10.7S54.1,20.3,49.4,20.3z"></path><path fill="#C6A28A" d="M49.4,20.3v20c4.7,0,8.5-4.8,8.5-10.7S54.1,20.3,49.4,20.3z"></path><path fill="#3B4C56" d="M57.3,20.9c-0.3-0.5-1.2,0-1.8,0c0.4-0.7,0.6-1.6-0.2-2.4c-1.6-1.6-8.9-0.8-12.6,1.1
				c-3.7,2-2.2,8.9-2.2,8.9l0,0v0.1l0.1,1.9c0,0.2,0.2,0.3,0.4,0.3s0.3-0.1,0.4-0.3c0-0.4,0.1-1.2,0.2-2.1
				c5.7-0.5,10.6-3.1,12.6-5.9c2.5,2.6,2.8,6.7,2.9,7.8c0,0.2,0.2,0.3,0.4,0.3l0,0c0.2,0,0.3-0.1,0.4-0.3l0.1-1.7
				C58.4,26.2,58.5,22.6,57.3,20.9z"></path><path fill="#465C6A" d="M57.3,20.9c-0.3-0.5-1.2,0-1.8,0c0.4-0.7,0.6-1.6-0.2-2.4s-3.3-1-6-0.7v8.6c2.2-1.1,4-2.5,5-3.9
				c2.5,2.6,2.8,6.7,2.9,7.8c0,0.2,0.2,0.3,0.4,0.3l0,0c0.2,0,0.3-0.1,0.4-0.3l0.1-1.7C58.4,26.2,58.5,22.6,57.3,20.9z"></path><path fill="#D5B79F" d="M63.8,50.5c-0.6-2.8-4.4-4.7-4.4-4.7l-7.1-3l-2.9,0.4l-2.9-0.4l-7.1,3c0,0-3.8,1.8-4.4,4.7
			c-0.6,2.8-1.3,14.4-1.3,14.4h15.7h15.7C65.1,64.9,64.3,53.3,63.8,50.5z"></path><path fill="#FAD22C" d="M65.1,64.9H33.7c0,0,0.7-11.6,1.3-14.4c0.6-2.8,4.4-4.7,4.4-4.7l4.1-1.8c1.4,1.6,3.6,2.7,5.9,2.7
			c2.4,0,4.5-1,5.9-2.7l4.1,1.8c0,0,3.8,1.8,4.4,4.7C64.3,53.3,65.1,64.9,65.1,64.9z"></path><path fill="#E0B624" d="M49.5,64.9h15.6c0,0-0.7-11.6-1.3-14.4c-0.6-2.8-4.4-4.7-4.4-4.7L55.3,44c-1.4,1.6-3.5,2.6-5.8,2.7V64.9z"></path><g><polygon fill="#E0B624" points="40.4 64.9 38.6 56.9 40.4 55.6"></polygon><polygon fill="#FAD22C" points="58.3 64.9 60.1 56.9 58.3 55.6"></polygon></g><g><rect width="7.2" height="5.7" x="17.6" y="40.5" fill="#15A9CB"></rect><rect width="3.6" height="5.7" x="17.6" y="40.5" fill="#45BBDD"></rect><rect width="2.2" height="7.2" x="20.1" y="19.5" fill="#465C6A"></rect><rect width="1.1" height="7.2" x="20.1" y="19.5" fill="#3B4C56"></rect><circle cx="21.2" cy="19.5" r="2.4" fill="#465C6A"></circle><path fill="#3B4C56" d="M21.2,17.2L21.2,17.2v4.7l0,0c1.3,0,2.4-1.1,2.4-2.4S22.5,17.2,21.2,17.2z"></path><rect width="3.2" height="4.5" x="28.1" y="30.3" fill="#E8664A"></rect><rect width="3.2" height="2.3" x="28.1" y="32.6" fill="#D95239"></rect><rect width="3.2" height="4.5" x="11.1" y="30.3" fill="#E8664A"></rect><rect width="3.2" height="2.3" x="11.1" y="32.6" fill="#D95239"></rect><path fill="#45BBDD" d="M27.2,23.8h-12c-1.4,0-2.5,1.1-2.5,2.5v12.6c0,1.4,1.1,2.5,2.5,2.5h12c1.4,0,2.5-1.1,2.5-2.5V26.3
				C29.7,24.9,28.6,23.8,27.2,23.8z"></path><path fill="#15A9CB" d="M27.2 23.8h-6v8.8h8.5v-6.3C29.7 24.9 28.6 23.8 27.2 23.8zM12.6 38.9c0 1.4 1.1 2.5 2.5 2.5h6v-8.8h-8.5V38.9z"></path><circle cx="17.5" cy="30" r="2.2" fill="#E8664A"></circle><circle cx="17.5" cy="30" r="1.3" fill="#D95239"></circle><path fill="#FFF" d="M16.2,30c0-0.7,0.6-1.3,1.3-1.3v-0.8c-1.2,0-2.2,1-2.2,2.2s1,2.2,2.2,2.2v-0.8
						C16.8,31.3,16.2,30.7,16.2,30z"></path><path fill="#D4D8DB" d="M17.5,27.8v0.8c0.7,0,1.3,0.6,1.3,1.3s-0.6,1.3-1.3,1.3V32c1.2,0,2.2-1,2.2-2.2S18.7,27.8,17.5,27.8z"></path><path fill="#465C6A" d="M16.2,30c0,0.7,0.6,1.3,1.3,1.3v-2.7C16.8,28.7,16.2,29.3,16.2,30z"></path><path fill="#3B4C56" d="M18.8,30c0-0.7-0.6-1.3-1.3-1.3v2.7C18.2,31.3,18.8,30.7,18.8,30z"></path><g><circle cx="24.9" cy="30" r="2.2" fill="#E8664A"></circle><circle cx="24.9" cy="30" r="1.3" fill="#D95239"></circle><path fill="#FFF" d="M23.6,30c0-0.7,0.6-1.3,1.3-1.3v-0.8c-1.2,0-2.2,1-2.2,2.2s1,2.2,2.2,2.2v-0.8
						C24.2,31.3,23.6,30.7,23.6,30z"></path><path fill="#D4D8DB" d="M24.9,27.8v0.8c0.7,0,1.3,0.6,1.3,1.3s-0.6,1.3-1.3,1.3V32c1.2,0,2.2-1,2.2-2.2S26.1,27.8,24.9,27.8z"></path><path fill="#465C6A" d="M23.6,30c0,0.7,0.6,1.3,1.3,1.3v-2.7C24.2,28.7,23.6,29.3,23.6,30z"></path><path fill="#3B4C56" d="M26.2,30c0-0.7-0.6-1.3-1.3-1.3v2.7C25.6,31.3,26.2,30.7,26.2,30z"></path></g><g><polygon fill="#45BBDD" points="39.2 64.9 36.2 64.9 36.2 50.8 31.3 50.8 31.3 47.8 39.2 47.8"></polygon><circle cx="37.7" cy="49.2" r="3.7" fill="#E8664A"></circle><circle cx="37.7" cy="49.2" r="2.3" fill="#D95239"></circle><path fill="#E8664A" d="M35.4,49.2c0-1.3,1-2.3,2.3-2.3v-1.4c-2,0-3.7,1.7-3.7,3.7s1.7,3.7,3.7,3.7v-1.4
						C36.4,51.5,35.4,50.5,35.4,49.2z"></path><path fill="#D95239" d="M37.7,45.5V47c1.3,0,2.3,1,2.3,2.3s-1,2.3-2.3,2.3V53c2,0,3.7-1.7,3.7-3.7
						C41.4,47.2,39.7,45.5,37.7,45.5z"></path><path fill="#E6E6E8" d="M35.4,49.2c0,1.3,1,2.3,2.3,2.3V47C36.4,47,35.4,48,35.4,49.2z"></path><path fill="#D4D8DB" d="M40,49.2c0-1.3-1-2.3-2.3-2.3v4.6C39,51.5,40,50.5,40,49.2z"></path></g><g><polygon fill="#45BBDD" points="3.1 64.9 6.1 64.9 6.1 50.8 11.1 50.8 11.1 47.8 3.1 47.8"></polygon><circle cx="4.6" cy="49.2" r="3.7" fill="#E8664A"></circle><circle cx="4.6" cy="49.2" r="2.3" fill="#D95239"></circle><path fill="#E8664A" d="M6.9,49.2c0-1.3-1-2.3-2.3-2.3v-1.4c2,0,3.7,1.7,3.7,3.7s-1.7,3.7-3.7,3.7v-1.4
						C5.9,51.5,6.9,50.5,6.9,49.2z"></path><path fill="#D95239" d="M4.6,45.5V47c-1.3,0-2.3,1-2.3,2.3s1,2.3,2.3,2.3V53c-2,0-3.7-1.7-3.7-3.7C0.9,47.2,2.6,45.5,4.6,45.5z
						"></path><path fill="#E6E6E8" d="M6.9,49.2c0,1.3-1,2.3-2.3,2.3V47C5.9,47,6.9,48,6.9,49.2z"></path><path fill="#D4D8DB" d="M2.4,49.2c0-1.3,1-2.3,2.3-2.3v4.6C3.4,51.5,2.4,50.5,2.4,49.2z"></path></g><rect width="8.3" height="3" x="17" y="35.8" fill="#465C6A"></rect><rect width="4.1" height="3" x="17" y="35.8" fill="#3B4C56"></rect><rect width="6.5" height="1.4" x="17.9" y="36.6" fill="#3B4C56"></rect><rect width="3.2" height="1.4" x="17.9" y="36.6" fill="#465C6A"></rect><path fill="#45BBDD" d="M30.4,45.3H12c-1.3,0-2.3,1-2.3,2.3v17.3h23V47.6C32.7,46.3,31.7,45.3,30.4,45.3z"></path><path fill="#15A9CB" d="M12,45.3c-1.3,0-2.3,1-2.3,2.3v17.3h11.6V45.3H12z"></path></g><g><path fill="#D95239" d="M45.5,1.1H29.1c-0.6,0-1.1,0.5-1.1,1.1v10.6c0,0.6,0.5,1.1,1.1,1.1h10.7l3.6,3.6v-3.6h2.1
				c0.6,0,1.1-0.5,1.1-1.1V2.2C46.6,1.6,46.1,1.1,45.5,1.1z"></path><path fill="#E8664A" d="M29.1,1.1c-0.6,0-1.1,0.5-1.1,1.1v10.6c0,0.6,0.5,1.1,1.1,1.1h8.2V1.1H29.1z"></path><path fill="#E0B624" d="M23.9,7.3h11.4C35.7,7.3,36,7.6,36,8v7.4c0,0.4-0.3,0.7-0.7,0.7h-7.4l-2.5,2.5v-2.5h-1.5
				c-0.4,0-0.7-0.3-0.7-0.7V8C23.1,7.6,23.5,7.3,23.9,7.3z"></path><path fill="#FAD22C" d="M35.3,7.3C35.7,7.3,36,7.6,36,8v7.4c0,0.4-0.3,0.7-0.7,0.7h-5.7V7.3H35.3z"></path><g><circle cx="26.5" cy="11.8" r="1" fill="#FFF"></circle><circle cx="29.6" cy="11.8" r="1" fill="#FFF"></circle><circle cx="32.7" cy="11.8" r="1" fill="#FFF"></circle></g></g></svg>