<svg xmlns="http://www.w3.org/2000/svg" viewBox="0 0 64 64" id="business-presenter"><rect width="43" height="40" x="18" y="8" fill="#5bcbfa"></rect><rect width="5" height="15" x="50" y="19" fill="#f6cc4f"></rect><rect width="43" height="5" x="18" y="3" fill="#3780ea"></rect><rect width="5" height="11" x="41" y="23" fill="#f6cc4f"></rect><rect width="5" height="7" x="32" y="27" fill="#f6cc4f"></rect><path fill="#ffcbbe" d="M30,23v1a2.006,2.006,0,0,1-2,2H26V21h2A2.006,2.006,0,0,1,30,23Z"></path><path fill="#365e7d" d="M43,38v6H30V61H3V41a3,3,0,0,1,3-3Z"></path><path fill="#ffcbbe" d="M22,31v7c-.426.57-2.6,3.459-3,4-.4-.54-2.572-3.429-3-4V31Z"></path><polygon fill="#e28086" points="20 45 23 53 19 57 15 53 18 45 20 45"></polygon><path fill="#dd636e" d="M19.6,41.4,22,43c-.717.651-2.31,2.359-3,3l-3-3,2.4-1.6.1-.07h1Z"></path><polygon fill="#e1ecfd" points="18.5 41.33 18.4 41.4 16 43 13 45 12.99 38 16 38 18.5 41.33"></polygon><path fill="#e1ecfd" d="M25,38v7c-1.506-1.026-3.956-2.621-5.4-3.6l-.1-.07L22,38Z"></path><path fill="#ffcbbe" d="M50 41v1a2.006 2.006 0 0 1-2 2H43V38H53.5a1.5 1.5 0 0 1 0 3zM12 21v5H10a2.006 2.006 0 0 1-2-2V23a2.006 2.006 0 0 1 2-2z"></path><path fill="#ffddce" d="M12,17H26a0,0,0,0,1,0,0V27a7,7,0,0,1-7,7h0a7,7,0,0,1-7-7V17A0,0,0,0,1,12,17Z"></path><path fill="#3e3d42" d="M26,14v6H25a3.985,3.985,0,0,1-3.63-2.33A6,6,0,0,1,16,21H13a3.657,3.657,0,0,1-1-.13A3.992,3.992,0,0,1,9,17V15a1,1,0,0,1,1-1Z"></path><path fill="#2d2d30" d="M15 23v1a1 1 0 0 0 2 0V23a1 1 0 0 0-2 0zM22 25a1 1 0 0 0 1-1V23a1 1 0 0 0-2 0v1A1 1 0 0 0 22 25z"></path><polygon fill="#ec455a" points="35.524 19.852 44.259 14.477 45.25 16.088 48 11 42.219 11.162 43.21 12.773 34.476 18.148 35.524 19.852"></polygon><rect width="29" height="3" x="29" y="33" fill="#ef8746"></rect><rect width="2" height="11" x="7" y="50" fill="#2b556d"></rect></svg>