<svg xmlns="http://www.w3.org/2000/svg" enable-background="new 0 0 64 64" viewBox="0 0 64 64" id="artificial-robot"><path d="M45.71,29.29c-1.88,0-3.4,1.53-3.4,3.4v5.12c0,1.87,1.52,3.4,3.4,3.4c1.87,0,3.39-1.53,3.39-3.4v-5.12
		C49.1,30.82,47.58,29.29,45.71,29.29z M47.16,37.81c0,0.81-0.65,1.46-1.45,1.46c-0.81,0-1.46-0.65-1.46-1.46v-5.12
		c0-0.8,0.65-1.46,1.46-1.46c0.8,0,1.45,0.66,1.45,1.46V37.81z"></path><path fill="#fa5669" d="M47.16,32.69v5.12c0,0.81-0.65,1.46-1.45,1.46c-0.81,0-1.46-0.65-1.46-1.46v-5.12c0-0.8,0.65-1.46,1.46-1.46
		C46.51,31.23,47.16,31.89,47.16,32.69z"></path><path d="M50.62,35.64c-0.54,0-0.97,0.43-0.97,0.97v1.23c0,2.17-1.77,3.94-3.94,3.94c-2.17,0-3.94-1.77-3.94-3.94v-1.23
		c0-0.54-0.43-0.97-0.97-0.97s-0.97,0.43-0.97,0.97v1.23c0,2.91,2.13,5.33,4.91,5.79v2.55h-2.07c-0.54,0-0.97,0.43-0.97,0.97
		c0,0.54,0.43,0.97,0.97,0.97h6.08c0.54,0,0.97-0.43,0.97-0.97c0-0.54-0.43-0.97-0.97-0.97h-2.07v-2.55
		c2.78-0.46,4.91-2.88,4.91-5.79v-1.23C51.59,36.08,51.15,35.64,50.62,35.64z"></path><path d="M39.62,19.55v-4c1.43-0.42,2.48-1.73,2.48-3.29c0-1.91-1.55-3.46-3.45-3.46c-1.91,0-3.45,1.55-3.45,3.46
		c0,1.56,1.05,2.87,2.48,3.29v3.97h-0.17c-0.46-0.99-1.05-1.91-1.78-2.74c-2.17-2.5-5.33-3.94-8.66-3.94h-1.53
		c-0.87-1.71-2.63-2.82-4.58-2.82c-1.96,0-3.72,1.11-4.58,2.82h-2.04c-3.07,0-5.96,1.2-8.14,3.37c-0.97,0.97-1.74,2.09-2.3,3.31
		H2.12C0.95,19.52,0,20.47,0,21.64v5.41c0,1.17,0.95,2.12,2.12,2.12H3.9c0.58,1.26,1.38,2.42,2.41,3.41
		c2.07,2.03,4.79,3.16,7.69,3.25v1.01H6.76c-1.73,0-3.13,1.4-3.13,3.13v14.26c0,0.53,0.43,0.97,0.97,0.97h32.2
		c0.54,0,0.97-0.44,0.97-0.97V39.97c0-0.71-0.22-1.37-0.63-1.89c-0.6-0.79-1.51-1.24-2.5-1.24h-7.66v-0.99h0.09
		c3.07,0,5.96-1.2,8.13-3.37c0.97-0.97,1.74-2.1,2.31-3.31h1.77c1.17,0,2.12-0.95,2.12-2.12v-5.41
		C41.4,20.58,40.63,19.71,39.62,19.55z M3.21,27.23H2.12c-0.1,0-0.18-0.08-0.18-0.18v-5.41c0-0.1,0.08-0.19,0.18-0.19h1.09
		c-0.24,0.94-0.38,1.9-0.38,2.89S2.97,26.3,3.21,27.23z M20.96,11.96c0.84,0,1.62,0.33,2.2,0.88h-4.4
		C19.34,12.29,20.12,11.96,20.96,11.96z M34.64,38.78c0.38,0,0.72,0.17,0.96,0.48c0.15,0.2,0.23,0.44,0.23,0.71v13.29H5.57V39.97
		c0-0.66,0.53-1.19,1.19-1.19H34.64z M15.94,36.84v-0.99h9.1v0.99H15.94z M35.98,27.81c0,0.01-0.01,0.03-0.01,0.04
		c-0.48,1.21-1.2,2.31-2.14,3.26c-1.81,1.8-4.21,2.8-6.76,2.8H14.34c-2.52,0-4.89-0.97-6.68-2.72c-1.86-1.8-2.89-4.24-2.89-6.85
		c0-2.55,1-4.95,2.8-6.76c1.82-1.81,4.22-2.8,6.77-2.8h12.73c2.77,0,5.39,1.19,7.2,3.28c1.53,1.74,2.37,3.97,2.37,6.28
		C36.64,25.55,36.41,26.72,35.98,27.81z M37.14,12.26c0-0.84,0.67-1.52,1.51-1.52c0.83,0,1.51,0.68,1.51,1.52
		c0,0.83-0.68,1.51-1.51,1.51C37.81,13.77,37.14,13.09,37.14,12.26z M39.46,27.05c0,0.1-0.08,0.18-0.18,0.18H38.2
		c0.24-0.93,0.38-1.9,0.38-2.89c0-0.98-0.14-1.95-0.38-2.89h1.08c0.1,0,0.18,0.09,0.18,0.19V27.05z"></path><path fill="#fa5669" d="M40.16,12.26c0,0.83-0.68,1.51-1.51,1.51c-0.84,0-1.51-0.68-1.51-1.51c0-0.84,0.67-1.52,1.51-1.52
		C39.48,10.74,40.16,11.42,40.16,12.26z"></path><path fill="#3ebedb" d="M23.16 12.84h-4.4c.58-.55 1.36-.88 2.2-.88C21.8 11.96 22.58 12.29 23.16 12.84zM2.83 24.34c0 .99.14 1.96.38 2.89H2.12c-.1 0-.18-.08-.18-.18v-5.41c0-.1.08-.19.18-.19h1.09C2.97 22.39 2.83 23.35 2.83 24.34zM39.46 21.64v5.41c0 .1-.08.18-.18.18H38.2c.24-.93.38-1.9.38-2.89 0-.98-.14-1.95-.38-2.89h1.08C39.38 21.45 39.46 21.54 39.46 21.64z"></path><path fill="#4bc8f1" d="M34.27 18.06c-1.81-2.09-4.43-3.28-7.2-3.28H14.34c-2.55 0-4.95.99-6.77 2.8-1.8 1.81-2.8 4.21-2.8 6.76 0 2.61 1.03 5.05 2.89 6.85 1.79 1.75 4.16 2.72 6.68 2.72h12.73c2.55 0 4.95-1 6.76-2.8.94-.95 1.66-2.05 2.14-3.26 0-.01.01-.03.01-.04.43-1.09.66-2.26.66-3.47C36.64 22.03 35.8 19.8 34.27 18.06zM13.53 28.12c-.71 0-1.42-.21-2.04-.61-.03-.02-.06-.03-.09-.05-1.03-.71-1.64-1.88-1.64-3.12 0-2.09 1.69-3.78 3.77-3.78 1 0 1.97.4 2.67 1.11.72.72 1.11 1.66 1.11 2.67C17.31 26.43 15.61 28.12 13.53 28.12zM27.87 28.12c-.73 0-1.45-.22-2.1-.63-.03-.03-.06-.05-.1-.07-.99-.71-1.58-1.85-1.58-3.08 0-2.09 1.7-3.78 3.78-3.78.98 0 1.93.39 2.66 1.1.73.73 1.11 1.67 1.11 2.68C31.64 26.43 29.95 28.12 27.87 28.12zM35.6 39.26c-.24-.31-.58-.48-.96-.48H6.76c-.66 0-1.19.53-1.19 1.19v13.29h30.26V39.97C35.83 39.7 35.75 39.46 35.6 39.26zM16.92 48.26H9.4c-.53 0-.97-.43-.97-.97 0-.53.44-.97.97-.97h7.52c.54 0 .97.44.97.97C17.89 47.83 17.46 48.26 16.92 48.26zM16.92 44.01H9.4c-.53 0-.97-.43-.97-.97s.44-.97.97-.97h7.52c.54 0 .97.43.97.97S17.46 44.01 16.92 44.01z"></path><path d="M30.53,21.66c-0.73-0.71-1.68-1.1-2.66-1.1c-2.08,0-3.78,1.69-3.78,3.78c0,1.23,0.59,2.37,1.58,3.08
		c0.04,0.02,0.07,0.04,0.1,0.07c0.65,0.41,1.37,0.63,2.1,0.63c2.08,0,3.77-1.69,3.77-3.78C31.64,23.33,31.26,22.39,30.53,21.66z
		 M27.87,26.19c-0.41,0-0.76-0.16-1-0.3c-0.01-0.01-0.03-0.02-0.04-0.03c-0.5-0.34-0.8-0.91-0.8-1.52c0-1.02,0.82-1.84,1.84-1.84
		c0.47,0,0.94,0.2,1.32,0.57c0.33,0.33,0.51,0.78,0.51,1.27C29.7,25.36,28.88,26.19,27.87,26.19z"></path><path fill="#ffd630" d="M29.7,24.34c0,1.02-0.82,1.85-1.83,1.85c-0.41,0-0.76-0.16-1-0.3c-0.01-0.01-0.03-0.02-0.04-0.03
		c-0.5-0.34-0.8-0.91-0.8-1.52c0-1.02,0.82-1.84,1.84-1.84c0.47,0,0.94,0.2,1.32,0.57C29.52,23.4,29.7,23.85,29.7,24.34z"></path><path d="M16.2,21.67c-0.7-0.71-1.67-1.11-2.67-1.11c-2.08,0-3.77,1.69-3.77,3.78c0,1.24,0.61,2.41,1.64,3.12
		c0.03,0.02,0.06,0.03,0.09,0.05c0.62,0.4,1.33,0.61,2.04,0.61c2.08,0,3.78-1.69,3.78-3.78C17.31,23.33,16.92,22.39,16.2,21.67z
		 M13.53,26.19c-0.34,0-0.71-0.12-1.02-0.33c-0.02-0.01-0.04-0.02-0.06-0.04c-0.47-0.34-0.75-0.89-0.75-1.48
		c0-1.02,0.82-1.84,1.83-1.84c0.48,0,0.96,0.2,1.33,0.57c0.33,0.33,0.51,0.78,0.51,1.27C15.37,25.36,14.54,26.19,13.53,26.19z"></path><path fill="#ffd630" d="M15.37,24.34c0,1.02-0.83,1.85-1.84,1.85c-0.34,0-0.71-0.12-1.02-0.33c-0.02-0.01-0.04-0.02-0.06-0.04
		c-0.47-0.34-0.75-0.89-0.75-1.48c0-1.02,0.82-1.84,1.83-1.84c0.48,0,0.96,0.2,1.33,0.57C15.19,23.4,15.37,23.85,15.37,24.34z"></path><path d="M17.89 43.04c0 .54-.43.97-.97.97H9.4c-.53 0-.97-.43-.97-.97s.44-.97.97-.97h7.52C17.46 42.07 17.89 42.5 17.89 43.04zM17.89 47.29c0 .54-.43.97-.97.97H9.4c-.53 0-.97-.43-.97-.97 0-.53.44-.97.97-.97h7.52C17.46 46.32 17.89 46.76 17.89 47.29zM54.2 38.06c-.54 0-.97.43-.97.97v4.86c0 .54.43.97.97.97.54 0 .97-.43.97-.97v-4.86C55.17 38.49 54.74 38.06 54.2 38.06zM57.14 38.99c-.54 0-.97.43-.97.97v2.98c0 .54.43.97.97.97.54 0 .97-.43.97-.97v-2.98C58.11 39.43 57.68 38.99 57.14 38.99zM60.09 37.12c-.54 0-.97.43-.97.97v6.73c0 .54.43.97.97.97.54 0 .97-.43.97-.97v-6.73C61.06 37.55 60.62 37.12 60.09 37.12zM63.03 38.99c-.54 0-.97.43-.97.97v2.98c0 .54.43.97.97.97.54 0 .97-.43.97-.97v-2.98C64 39.43 63.57 38.99 63.03 38.99z"></path></svg>