<svg xmlns="http://www.w3.org/2000/svg" xmlns:xlink="http://www.w3.org/1999/xlink" viewBox="0 0 16 16" id="computer"><defs><linearGradient id="a"><stop offset="0" stop-color="#000092"></stop><stop offset="1" stop-color="#ff00f3"></stop></linearGradient><linearGradient id="b" x1="3.129" x2="13" y1="7.828" y2="7.828" gradientUnits="userSpaceOnUse" xlink:href="#a"></linearGradient></defs><path fill="url(#b)" d="M4.65.656c-.839 0-1.521.683-1.521 1.522a1.522 1.522 0 0 0 3.043 0c0-.84-.683-1.522-1.522-1.522zm4.118 0a1.52 1.52 0 1 0 .002 3.041 1.52 1.52 0 0 0-.002-3.04zm3.836 0a1.521 1.521 0 0 0 0 3.041 1.521 1.521 0 1 0 0-3.04zm-7.954 1a.52.52 0 1 1 .002 1.041.52.52 0 0 1-.002-1.04zm4.118 0a.521.521 0 1 1 0 1.04.521.521 0 0 1 0-1.04zm3.836 0a.521.521 0 1 1 0 1.04.521.521 0 0 1 0-1.04zM4 4v2h4v1H6.346C5.604 7 5 7.604 5 8.346v3.31C5 12.397 5.604 13 6.346 13H8v1H7v1h3v-1H9v-1h1.654c.742 0 1.346-.604 1.346-1.346V8.346C12 7.604 11.396 7 10.654 7H9V6h4V4h-1v1H9V4H8v1H5V4H4zm2.346 4h4.308c.19 0 .346.156.346.346v3.31a.346.346 0 0 1-.346.344H6.346A.347.347 0 0 1 6 11.654V8.346c0-.19.156-.346.346-.346z"></path></svg>