<svg xmlns="http://www.w3.org/2000/svg" viewBox="0 0 24 24" id="database"><circle cx="11" cy="11" r="10" fill="#039BE5"></circle><path fill="#FFF" d="M11 1C6.9 1 3.381 3.47 1.838 7h18.324C18.62 3.47 15.1 1 11 1z" opacity=".1"></path><path d="M1.838 15C3.38 18.53 6.9 21 11 21s7.619-2.47 9.162-6H1.838z" opacity=".05"></path><path fill="#FFF" d="M7 11C7 5.486 8.243 1 11 1 5.486 1 1 5.486 1 11s4.486 10 10 10c-2.757 0-4-4.486-4-10z" opacity=".1"></path><path d="M11 1c2.757 0 4 4.486 4 10s-1.243 10-4 10c5.514 0 10-4.486 10-10S16.514 1 11 1z" opacity=".05"></path><path fill="#303C42" d="M6 16.5h16v2H6z"></path><path d="M6 16.5h16v2H6z" opacity=".1"></path><path fill="#303C42" d="M22 17H6a1 1 0 0 1-1-1v-3a1 1 0 0 1 1-1h16a1 1 0 0 1 1 1v3a1 1 0 0 1-1 1z"></path><path fill="#FFF" d="M22 12H6a1 1 0 0 0-1 1v.25a1 1 0 0 1 1-1h16a1 1 0 0 1 1 1V13a1 1 0 0 0-1-1z" opacity=".1"></path><path d="M22 16.75H6a1 1 0 0 1-1-1V16a1 1 0 0 0 1 1h16a1 1 0 0 0 1-1v-.25a1 1 0 0 1-1 1z" opacity=".2"></path><path fill="#303C42" d="M22 23H6a1 1 0 0 1-1-1v-3a1 1 0 0 1 1-1h16a1 1 0 0 1 1 1v3a1 1 0 0 1-1 1z"></path><circle cx="20.5" cy="20.5" r=".5" fill="#69B342"></circle><circle cx="18.5" cy="20.5" r=".5" fill="#69B342"></circle><circle cx="16.5" cy="20.5" r=".5" fill="#69B342"></circle><circle cx="7.5" cy="20.5" r="1" fill="#C6CDD1"></circle><linearGradient id="a" x1="6.868" x2="7.987" y1="19.868" y2="20.987" gradientUnits="userSpaceOnUse"><stop offset="0" stop-opacity=".1"></stop><stop offset="1" stop-opacity="0"></stop></linearGradient><circle cx="7.5" cy="20.5" r="1" fill="url(#a)"></circle><circle cx="20.5" cy="14.5" r=".5" fill="#69B342"></circle><circle cx="18.5" cy="14.5" r=".5" fill="#69B342"></circle><circle cx="16.5" cy="14.5" r=".5" fill="#69B342"></circle><path fill="#FFF" d="M22 18H6a1 1 0 0 0-1 1v.25a1 1 0 0 1 1-1h16a1 1 0 0 1 1 1V19a1 1 0 0 0-1-1z" opacity=".1"></path><path d="M22 22.75H6a1 1 0 0 1-1-1V22a1 1 0 0 0 1 1h16a1 1 0 0 0 1-1v-.25a1 1 0 0 1-1 1z" opacity=".2"></path><circle cx="7.5" cy="14.5" r="1" fill="#C6CDD1"></circle><linearGradient id="b" x1="6.868" x2="7.987" y1="13.868" y2="14.987" gradientUnits="userSpaceOnUse"><stop offset="0" stop-opacity=".1"></stop><stop offset="1" stop-opacity="0"></stop></linearGradient><circle cx="7.5" cy="14.5" r="1" fill="url(#b)"></circle><linearGradient id="c" x1="1.284" x2="24.504" y1="8.169" y2="18.996" gradientUnits="userSpaceOnUse"><stop offset="0" stop-color="#FFF" stop-opacity=".2"></stop><stop offset="1" stop-color="#FFF" stop-opacity="0"></stop></linearGradient><path fill="url(#c)" d="M23 16v-3a1 1 0 0 0-1-1h-1.05c.032-.329.05-.662.05-1 0-5.523-4.477-10-10-10S1 5.477 1 11c0 3.27 1.576 6.164 4.002 7.988L5 19v3a1 1 0 0 0 1 1h16a1 1 0 0 0 1-1v-3a1 1 0 0 0-1-1v-1a1 1 0 0 0 1-1z"></path></svg>